<svg version="1.1" id="Layer_1" xmlns="http://www.w3.org/2000/svg" xmlns:xlink="http://www.w3.org/1999/xlink" x="0px" y="0px"
	 width="100%" viewBox="0 0 500 369" enable-background="new 0 0 500 369" xml:space="preserve">
<path fill="#002676" opacity="1.000000" stroke="none" 
	d="
M346.000000,370.000000 
	C230.699677,370.000000 115.899353,370.000000 1.049517,370.000000 
	C1.049517,247.068390 1.049517,124.136749 1.049517,1.102556 
	C167.550323,1.102556 334.100739,1.102556 500.825562,1.102556 
	C500.825562,123.999794 500.825562,246.999878 500.825562,370.000000 
	C449.470062,370.000000 397.985016,370.000000 346.000000,370.000000 
M369.785492,277.856750 
	C369.826721,277.201141 369.867950,276.545532 369.909210,275.889923 
	C369.271545,276.264282 368.633911,276.638611 367.465820,276.968597 
	C366.652466,276.968597 365.839142,276.968597 365.038757,276.968597 
	C364.838348,278.745605 364.651703,280.400574 364.412201,282.523865 
	C365.946167,281.442963 367.555725,280.308777 369.219910,278.902435 
	C369.234283,278.622437 369.273499,278.346283 369.785492,277.856750 
M311.218231,282.919281 
	C322.128632,280.261322 333.293274,278.349304 343.879791,274.741028 
	C355.040802,270.936981 364.551666,264.039917 371.335785,254.036896 
	C374.856995,248.845001 373.737946,245.312927 367.986328,243.178802 
	C364.725342,241.968826 361.366455,241.018784 358.038879,239.993057 
	C342.996948,235.356339 334.635406,224.969528 332.130524,209.674423 
	C331.424133,205.360947 332.016876,201.580994 335.123535,197.720276 
	C354.175018,174.044296 370.446594,148.545334 382.253937,120.489273 
	C385.656464,112.404335 387.755341,103.482849 388.742737,94.751610 
	C389.700470,86.282578 384.122375,82.369576 375.989441,84.846275 
	C371.296875,86.275269 366.661346,88.465851 362.563141,91.167656 
	C348.634644,100.350235 337.321075,112.317467 327.829071,125.941193 
	C310.046143,151.464767 298.643890,178.919250 303.009003,210.968033 
	C303.178925,212.215591 302.691620,214.173523 301.795105,214.844437 
	C296.095398,219.109909 290.525726,223.762726 284.232483,226.939331 
	C280.600861,228.772415 274.260040,229.984634 271.706024,228.063339 
	C268.119598,225.365387 270.681854,219.749374 272.394226,215.588730 
	C278.893036,199.797974 285.510254,184.055893 292.004883,168.263412 
	C294.276031,162.740799 292.470490,160.150269 286.414764,160.030258 
	C282.417603,159.951035 278.391632,159.731430 274.427124,160.098953 
	C271.248047,160.393661 268.142059,161.476913 264.096680,162.422134 
	C256.355530,157.486404 247.341171,160.113419 238.841049,163.394699 
	C218.458679,171.262939 205.514328,186.898422 196.079147,205.992584 
	C193.588882,211.032150 190.931000,216.156265 187.414093,220.480270 
	C182.636444,226.354355 175.917267,229.033783 168.269577,227.601440 
	C160.613922,226.167618 157.140228,220.270065 155.091995,213.483017 
	C151.790100,202.541824 152.064163,191.374161 154.568283,180.408356 
	C160.182648,155.822357 172.118912,134.277710 187.759216,114.744812 
	C197.883484,102.100784 208.671570,89.925697 223.273743,82.279053 
	C228.405319,79.591835 234.397491,78.216431 240.165329,77.183922 
	C244.546371,76.399666 246.755508,79.534157 246.944397,83.878914 
	C247.248291,90.868721 241.807343,97.181503 234.285370,99.148750 
	C229.847336,100.309425 224.986298,101.269981 221.419159,103.847794 
	C219.019287,105.582077 217.625717,109.937981 217.451767,113.209801 
	C217.238159,117.227592 220.494537,119.923874 224.504791,120.286301 
	C227.674698,120.572800 231.502182,120.808807 234.068039,119.355438 
	C248.378479,111.249535 258.064941,99.356094 260.634918,82.750969 
	C262.393402,71.388992 254.999649,62.499538 243.628250,63.227234 
	C234.327805,63.822407 224.634933,65.148903 216.026108,68.493568 
	C179.847107,82.549622 151.748886,106.951508 130.379639,139.078979 
	C117.815430,157.968597 109.880989,178.557312 111.033478,201.777817 
	C111.553780,212.261032 114.063316,222.171005 121.040276,230.388275 
	C132.243027,243.582504 157.059601,249.492203 173.899231,242.415298 
	C181.267395,239.318802 188.001999,234.714691 195.113052,230.745636 
	C199.239273,240.883972 207.848358,244.417191 218.350235,245.111282 
	C228.947815,245.811676 237.284424,241.335007 244.436157,233.488998 
	C246.575760,240.621201 251.125641,244.274567 257.635010,244.845810 
	C262.399200,245.263916 267.318756,245.091705 272.056793,244.406464 
	C286.158508,242.366989 297.829498,235.198380 308.670685,225.823441 
	C317.299927,241.448502 332.023438,247.188187 348.443298,250.785568 
	C345.554230,252.842102 342.938690,254.572159 340.172943,254.860352 
	C332.585388,255.650970 324.914276,256.425293 317.312439,256.161713 
	C277.361328,254.776398 237.424118,252.995255 197.476456,251.502060 
	C176.855148,250.731232 156.528839,252.667587 137.072464,260.054901 
	C125.615356,264.404968 114.860519,270.109222 107.316658,280.209412 
	C105.741295,282.318604 105.505653,285.428436 104.652618,288.077179 
	C107.313286,287.944214 110.032875,288.120209 112.624664,287.625977 
	C125.440498,285.182190 138.135773,281.104462 151.036362,280.336029 
	C171.607864,279.110657 192.314972,279.713287 212.952225,280.143646 
	C245.399277,280.820343 277.835907,281.996338 311.218231,282.919281 
M369.854614,281.909210 
	C370.081390,282.179993 370.308136,282.450775 370.534882,282.721588 
	C370.717041,282.226074 370.899170,281.730560 371.081299,281.235046 
	C370.729004,281.299438 370.376740,281.363800 369.854614,281.909210 
z"/>
<path fill="#FBB416" opacity="1.000000" stroke="none" 
	d="
M310.747620,282.940094 
	C277.835907,281.996338 245.399277,280.820343 212.952225,280.143646 
	C192.314972,279.713287 171.607864,279.110657 151.036362,280.336029 
	C138.135773,281.104462 125.440498,285.182190 112.624664,287.625977 
	C110.032875,288.120209 107.313286,287.944214 104.652618,288.077148 
	C105.505653,285.428436 105.741295,282.318604 107.316658,280.209412 
	C114.860519,270.109222 125.615356,264.404968 137.072464,260.054901 
	C156.528839,252.667587 176.855148,250.731232 197.476456,251.502060 
	C237.424118,252.995255 277.361328,254.776398 317.312439,256.161713 
	C324.914276,256.425293 332.585388,255.650970 340.172943,254.860352 
	C342.938690,254.572159 345.554230,252.842102 348.443298,250.785568 
	C332.023438,247.188187 317.299927,241.448502 308.670685,225.823441 
	C297.829498,235.198380 286.158508,242.366989 272.056793,244.406464 
	C267.318756,245.091705 262.399200,245.263916 257.635010,244.845810 
	C251.125641,244.274567 246.575760,240.621201 244.436157,233.488998 
	C237.284424,241.335007 228.947815,245.811676 218.350235,245.111282 
	C207.848358,244.417191 199.239273,240.883972 195.113052,230.745636 
	C188.001999,234.714691 181.267395,239.318802 173.899231,242.415298 
	C157.059601,249.492203 132.243027,243.582504 121.040276,230.388275 
	C114.063316,222.171005 111.553780,212.261032 111.033478,201.777817 
	C109.880989,178.557312 117.815430,157.968597 130.379639,139.078979 
	C151.748886,106.951508 179.847107,82.549622 216.026108,68.493568 
	C224.634933,65.148903 234.327805,63.822407 243.628250,63.227234 
	C254.999649,62.499538 262.393402,71.388992 260.634918,82.750969 
	C258.064941,99.356094 248.378479,111.249535 234.068039,119.355438 
	C231.502182,120.808807 227.674698,120.572800 224.504791,120.286301 
	C220.494537,119.923874 217.238159,117.227592 217.451767,113.209801 
	C217.625717,109.937981 219.019287,105.582077 221.419159,103.847794 
	C224.986298,101.269981 229.847336,100.309425 234.285370,99.148750 
	C241.807343,97.181503 247.248291,90.868721 246.944397,83.878914 
	C246.755508,79.534157 244.546371,76.399666 240.165329,77.183922 
	C234.397491,78.216431 228.405319,79.591835 223.273743,82.279053 
	C208.671570,89.925697 197.883484,102.100784 187.759216,114.744812 
	C172.118912,134.277710 160.182648,155.822357 154.568283,180.408356 
	C152.064163,191.374161 151.790100,202.541824 155.091995,213.483017 
	C157.140228,220.270065 160.613922,226.167618 168.269577,227.601440 
	C175.917267,229.033783 182.636444,226.354355 187.414093,220.480270 
	C190.931000,216.156265 193.588882,211.032150 196.079147,205.992584 
	C205.514328,186.898422 218.458679,171.262939 238.841049,163.394699 
	C247.341171,160.113419 256.355530,157.486404 264.096680,162.422134 
	C268.142059,161.476913 271.248047,160.393661 274.427124,160.098953 
	C278.391632,159.731430 282.417603,159.951035 286.414764,160.030258 
	C292.470490,160.150269 294.276031,162.740799 292.004883,168.263412 
	C285.510254,184.055893 278.893036,199.797974 272.394226,215.588730 
	C270.681854,219.749374 268.119598,225.365387 271.706024,228.063339 
	C274.260040,229.984634 280.600861,228.772415 284.232483,226.939331 
	C290.525726,223.762726 296.095398,219.109909 301.795105,214.844437 
	C302.691620,214.173523 303.178925,212.215591 303.009003,210.968033 
	C298.643890,178.919250 310.046143,151.464767 327.829071,125.941193 
	C337.321075,112.317467 348.634644,100.350235 362.563141,91.167656 
	C366.661346,88.465851 371.296875,86.275269 375.989441,84.846275 
	C384.122375,82.369576 389.700470,86.282578 388.742737,94.751610 
	C387.755341,103.482849 385.656464,112.404335 382.253937,120.489273 
	C370.446594,148.545334 354.175018,174.044296 335.123535,197.720276 
	C332.016876,201.580994 331.424133,205.360947 332.130524,209.674423 
	C334.635406,224.969528 342.996948,235.356339 358.038879,239.993057 
	C361.366455,241.018784 364.725342,241.968826 367.986328,243.178802 
	C373.737946,245.312927 374.856995,248.845001 371.335785,254.036896 
	C364.551666,264.039917 355.040802,270.936981 343.879791,274.741028 
	C333.293274,278.349304 322.128632,280.261322 310.747620,282.940094 
M249.014526,174.287720 
	C235.343781,184.829437 228.608612,199.278076 226.255508,215.907104 
	C225.902771,218.399765 227.556793,222.192902 229.556015,223.767090 
	C232.667862,226.217377 236.408447,224.390228 238.877716,221.695633 
	C241.197144,219.164581 243.353027,216.266800 244.764572,213.159576 
	C249.844254,201.977524 254.598083,190.646927 259.434662,179.355179 
	C261.468781,174.606155 259.586182,172.023880 254.414825,172.572769 
	C252.808334,172.743301 251.262024,173.480942 249.014526,174.287720 
M340.899658,152.386139 
	C338.062622,161.012543 335.225586,169.638947 332.388550,178.265350 
	C332.952698,178.484604 333.516815,178.703857 334.080963,178.923111 
	C349.839813,155.621536 365.255127,132.130386 375.361542,105.709206 
	C374.653259,105.270622 373.945007,104.832031 373.236725,104.393440 
	C358.691864,117.427597 348.954315,133.871902 340.899658,152.386139 
z"/>
<path fill="#B58C30" opacity="1.000000" stroke="none" 
	d="
M369.165283,279.174591 
	C367.555725,280.308777 365.946167,281.442963 364.412201,282.523865 
	C364.651703,280.400574 364.838348,278.745605 365.038757,276.968597 
	C365.839142,276.968597 366.652466,276.968597 367.899597,277.311035 
	C368.538513,277.780457 368.743652,277.907410 368.514923,278.092651 
	C367.533844,278.308105 366.986664,278.465363 366.439514,278.622620 
	C366.494568,278.806610 366.549622,278.990601 366.604675,279.174591 
	C367.458221,279.174591 368.311737,279.174591 369.165283,279.174591 
z"/>
<path fill="#052974" opacity="1.000000" stroke="none" 
	d="
M368.948822,278.034393 
	C368.743652,277.907410 368.538513,277.780457 368.164795,277.333221 
	C368.633911,276.638611 369.271545,276.264282 369.909210,275.889923 
	C369.867950,276.545532 369.826721,277.201141 369.464417,277.944000 
	C369.143372,278.031250 368.948822,278.034393 368.948822,278.034393 
z"/>
<path fill="#16326D" opacity="1.000000" stroke="none" 
	d="
M368.514923,278.092651 
	C368.948822,278.034393 369.143372,278.031250 369.240448,278.052612 
	C369.273499,278.346283 369.234283,278.622437 369.192596,279.038513 
	C368.311737,279.174591 367.458221,279.174591 366.604675,279.174591 
	C366.549622,278.990601 366.494568,278.806610 366.439514,278.622620 
	C366.986664,278.465363 367.533844,278.308105 368.514923,278.092651 
z"/>
<path fill="#837043" opacity="1.000000" stroke="none" 
	d="
M369.939514,281.668701 
	C370.376740,281.363800 370.729004,281.299438 371.081299,281.235046 
	C370.899170,281.730560 370.717041,282.226074 370.534882,282.721588 
	C370.308136,282.450775 370.081390,282.179993 369.939514,281.668701 
z"/>
<path fill="#052974" opacity="1.000000" stroke="none" 
	d="
M249.351349,174.123322 
	C251.262024,173.480942 252.808334,172.743301 254.414825,172.572769 
	C259.586182,172.023880 261.468781,174.606155 259.434662,179.355179 
	C254.598083,190.646927 249.844254,201.977524 244.764572,213.159576 
	C243.353027,216.266800 241.197144,219.164581 238.877716,221.695633 
	C236.408447,224.390228 232.667862,226.217377 229.556015,223.767090 
	C227.556793,222.192902 225.902771,218.399765 226.255508,215.907104 
	C228.608612,199.278076 235.343781,184.829437 249.351349,174.123322 
z"/>
<path fill="#082A73" opacity="1.000000" stroke="none" 
	d="
M340.992767,152.014130 
	C348.954315,133.871902 358.691864,117.427597 373.236725,104.393440 
	C373.945007,104.832031 374.653259,105.270622 375.361542,105.709206 
	C365.255127,132.130386 349.839813,155.621536 334.080963,178.923111 
	C333.516815,178.703857 332.952698,178.484604 332.388550,178.265350 
	C335.225586,169.638947 338.062622,161.012543 340.992767,152.014130 
z"/>
</svg>